<svg width="165" height="102" viewBox="0 0 165 102" fill="none" xmlns="http://www.w3.org/2000/svg">
<g filter="url(#filter0_i_165_853)">
<path d="M100 51C100 78.062 78.062 100 51 100C23.938 100 2 78.062 2 51C2 23.938 23.938 2 51 2C78.062 2 100 23.938 100 51Z" fill="black"/>
</g>
<path d="M51 101C78.6142 101 101 78.6142 101 51C101 23.3858 78.6142 1 51 1C23.3858 1 1 23.3858 1 51C1 78.6142 23.3858 101 51 101Z" stroke="#889596" stroke-width="2"/>
<g filter="url(#filter1_i_165_853)">
<path d="M163 51C163 78.062 141.062 100 114 100C86.938 100 65 78.062 65 51C65 23.938 86.938 2 114 2C141.062 2 163 23.938 163 51Z" fill="white"/>
</g>
<path d="M114 101C141.614 101 164 78.6142 164 51C164 23.3858 141.614 1 114 1C86.3858 1 64 23.3858 64 51C64 78.6142 86.3858 101 114 101Z" stroke="#A0A5AA" stroke-width="2"/>
<defs>
<filter id="filter0_i_165_853" x="0" y="0" width="112" height="107" filterUnits="userSpaceOnUse" color-interpolation-filters="sRGB">
<feFlood flood-opacity="0" result="BackgroundImageFix"/>
<feBlend mode="normal" in="SourceGraphic" in2="BackgroundImageFix" result="shape"/>
<feColorMatrix in="SourceAlpha" type="matrix" values="0 0 0 0 0 0 0 0 0 0 0 0 0 0 0 0 0 0 127 0" result="hardAlpha"/>
<feOffset dx="10" dy="5"/>
<feGaussianBlur stdDeviation="10"/>
<feComposite in2="hardAlpha" operator="arithmetic" k2="-1" k3="1"/>
<feColorMatrix type="matrix" values="0 0 0 0 0.606667 0 0 0 0 0.6888 0 0 0 0 0.7 0 0 0 1 0"/>
<feBlend mode="normal" in2="shape" result="effect1_innerShadow_165_853"/>
</filter>
<filter id="filter1_i_165_853" x="43" y="-3" width="122" height="105" filterUnits="userSpaceOnUse" color-interpolation-filters="sRGB">
<feFlood flood-opacity="0" result="BackgroundImageFix"/>
<feBlend mode="normal" in="SourceGraphic" in2="BackgroundImageFix" result="shape"/>
<feColorMatrix in="SourceAlpha" type="matrix" values="0 0 0 0 0 0 0 0 0 0 0 0 0 0 0 0 0 0 127 0" result="hardAlpha"/>
<feOffset dx="-20" dy="-3"/>
<feGaussianBlur stdDeviation="10"/>
<feComposite in2="hardAlpha" operator="arithmetic" k2="-1" k3="1"/>
<feColorMatrix type="matrix" values="0 0 0 0 0.250174 0 0 0 0 0.510354 0 0 0 0 0.545833 0 0 0 1 0"/>
<feBlend mode="normal" in2="shape" result="effect1_innerShadow_165_853"/>
</filter>
</defs>
</svg>
